<?xml version="1.0" encoding="UTF-8"?>
<svg version="1.1" xmlns="http://www.w3.org/2000/svg" width="1024" height="1024">
<path d="M0 0 C337.92 0 675.84 0 1024 0 C1024 337.92 1024 675.84 1024 1024 C686.08 1024 348.16 1024 0 1024 C0 686.08 0 348.16 0 0 Z " fill="#F9F9FA" transform="translate(0,0)"/>
<path d="M0 0 C2.16063939 -0.00144369 4.32125495 -0.00575326 6.48188829 -0.01099443 C14.06178268 -0.02933942 21.6416079 -0.03768273 29.22152376 -0.03609133 C36.22398834 -0.03488637 43.22614657 -0.05609809 50.22853363 -0.08757865 C56.30396175 -0.11389381 62.37929044 -0.12445266 68.45477498 -0.12318051 C72.05616579 -0.12267637 75.65728149 -0.12805257 79.25861406 -0.14953661 C98.16471079 -0.25454887 115.73783494 -0.16361227 132.66927767 9.33451414 C133.54455111 9.8101782 134.41982454 10.28584227 135.32162142 10.77592039 C149.1307741 18.45212573 161.28564728 28.0009225 173.16927767 38.33451414 C179.40643227 43.60023419 185.80967832 48.589267 192.35677767 53.45951414 C194.38113785 54.97796092 196.40344979 56.49904364 198.4236722 58.0229907 C199.86127183 59.10310052 201.30887871 60.1698778 202.75912142 61.23295164 C210.6444628 67.43830666 214.48035165 76.65907038 215.86849642 86.43217039 C218.81517167 114.86567314 218.81517167 114.86567314 215.16927767 120.33451414 C212.04427767 120.52201414 212.04427767 120.52201414 209.16927767 120.33451414 C204.15967532 112.13698303 204.1223671 102.49807139 203.73177767 93.14701414 C203.30113922 83.63757332 202.24862886 76.30656631 195.16927767 69.33451414 C192.11209018 67.35725251 192.11209018 67.35725251 188.73177767 65.70951414 C181.19316294 61.6815141 175.1289318 56.45746256 168.79476595 50.77445555 C165.52921012 47.88165767 162.12610359 45.15655958 158.73568392 42.41263914 C157.06634293 41.06090489 155.4068469 39.69688971 153.75912142 38.31888914 C140.02898684 26.97757473 121.34632989 13.9015014 103.16927767 12.33451414 C102.39584017 12.25845945 101.62240267 12.18240477 100.82552767 12.10404539 C94.05962344 11.71772061 89.52053467 13.17033176 84.16927767 17.33451414 C72.62505044 27.9694358 66.27542578 41.66672896 60.20101595 55.84476805 C56.24708876 64.8649842 52.15481008 71.00814668 43.16927767 75.33451414 C39.9469342 76.36054378 36.996419 76.46020044 33.62369967 76.46149778 C31.93109514 76.46572752 31.93109514 76.46572752 30.20429659 76.47004271 C28.9704674 76.46801847 27.7366382 76.46599424 26.46542025 76.46390867 C24.511131 76.46653715 24.511131 76.46653715 22.51736116 76.46921873 C18.94478416 76.4737779 15.37223604 76.47200913 11.79965854 76.46883965 C8.05491878 76.46630557 4.31018147 76.46865675 0.56544161 76.47022581 C-5.72848278 76.47204557 -12.02239543 76.46964745 -18.31631804 76.46488523 C-25.57688393 76.4594548 -32.83742168 76.46119717 -40.09798688 76.46671164 C-46.34104644 76.47126242 -52.58409758 76.47188336 -58.82715827 76.46927297 C-62.55143129 76.46771947 -66.27569113 76.46749068 -69.99996328 76.47080946 C-74.15995628 76.47425732 -78.31990154 76.4694664 -82.47989225 76.46390867 C-84.31545431 76.46694502 -84.31545431 76.46694502 -86.18809843 76.47004271 C-91.84366991 76.45608412 -97.35943394 76.28319244 -102.97055101 75.56413603 C-105.34142537 75.27147232 -107.68621615 75.18694629 -110.07388639 75.15751219 C-111.00170927 75.14487333 -111.92953215 75.13223448 -112.88547087 75.11921263 C-113.8625601 75.11162931 -114.83964933 75.104046 -115.84634733 75.09623289 C-116.88740629 75.08639372 -117.92846525 75.07655455 -119.00107145 75.06641722 C-182.60229786 74.05327334 -182.60229786 74.05327334 -237.83072233 101.33451414 C-238.80718718 102.26843992 -238.80718718 102.26843992 -239.80337858 103.22123289 C-243.05018004 106.61912476 -243.05018004 106.61912476 -244.01822233 111.08451414 C-242.03985927 114.83299151 -238.76316323 116.01184052 -234.86197233 117.36185789 C-225.76453126 119.70666295 -216.63439742 121.22019393 -207.33072233 122.52201414 C-206.14542936 122.68886717 -204.96013639 122.8557202 -203.73892546 123.02762938 C-186.53545854 125.3194611 -169.46851018 125.52093878 -152.13736296 125.51981688 C-148.31108147 125.52202548 -144.48507891 125.54030518 -140.65884733 125.55912352 C-138.20572331 125.56205438 -135.75259793 125.56404123 -133.29947233 125.56498289 C-132.16602385 125.57216841 -131.03257536 125.57935392 -129.86477995 125.58675718 C-121.17696469 125.56175127 -114.24577106 123.85473257 -106.01822233 121.08451414 C-98.47764084 118.64431366 -90.81465772 116.86202449 -83.08072233 115.14701414 C-81.95690153 114.89725828 -80.83308073 114.64750242 -79.67520475 114.3901782 C-60.88506023 110.30554393 -38.66073319 105.58976507 -19.83072233 111.33451414 C-17.83072233 113.33451414 -17.83072233 113.33451414 -17.71353483 115.21732664 C-18.87313501 125.9529799 -24.07436401 133.87954428 -32.47085905 140.65873289 C-40.40029025 146.6862232 -47.81731538 151.00632291 -57.83072233 152.33451414 C-58.52729948 152.43167723 -59.22387663 152.52884031 -59.94156218 152.62894773 C-103.30858393 158.47546474 -103.30858393 158.47546474 -118.01431608 147.32279539 C-119.83072233 145.33451414 -119.83072233 145.33451414 -120.7000308 143.42303038 C-121.85655627 141.00334531 -122.9406708 139.24754542 -124.83072233 137.33451414 C-128.62615617 136.15762194 -132.31362808 136.31051751 -136.26040983 136.40482664 C-137.39094282 136.39950926 -138.52147581 136.39419188 -139.68626738 136.38871336 C-142.10587831 136.3814307 -144.52559618 136.39194486 -146.9450717 136.41855955 C-151.97616664 136.47334965 -157.00554886 136.44230106 -162.03676176 136.41553831 C-164.52694757 136.40321493 -167.01715936 136.39532252 -169.50737333 136.39191771 C-197.6730718 136.34047178 -227.54168787 135.98611682 -252.83072233 122.33451414 C-252.95447233 122.99322508 -253.07822233 123.65193602 -253.20572233 124.33060789 C-253.97871881 128.04582222 -254.9002453 131.71893282 -255.83072233 135.39701414 C-256.00861296 136.10406492 -256.18650358 136.8111157 -256.36978483 137.53959227 C-257.80897319 143.25875495 -257.80897319 143.25875495 -258.37222624 145.22074461 C-259.37710365 149.85345422 -259.144734 154.6759625 -259.20572233 159.39701414 C-259.24310514 160.49851805 -259.28048796 161.60002195 -259.31900358 162.73490477 C-259.33060514 163.79000242 -259.34220671 164.84510008 -259.35415983 165.93217039 C-259.37397917 166.89646971 -259.3937985 167.86076902 -259.41421843 168.85428953 C-259.05369291 171.51742879 -259.05369291 171.51742879 -256.67496061 173.0920825 C-253.67166944 174.40399227 -251.03055077 175.07625567 -247.79947233 175.61576414 C-246.61232634 175.81637449 -245.42518034 176.01698484 -244.20206022 176.2236743 C-242.92451872 176.42525145 -241.64697721 176.62682859 -240.33072233 176.83451414 C-239.66668394 176.94156675 -239.00264555 177.04861937 -238.31848478 177.158916 C-224.57150461 179.36942598 -210.78985051 180.89876635 -196.92366171 182.14444304 C-194.86902246 182.3310359 -192.81500386 182.52344099 -190.76103544 182.71726561 C-163.57548235 185.26071343 -136.52337663 185.80784664 -109.23099089 185.88749266 C-100.64027673 185.91295243 -92.04972444 185.95190537 -83.4591651 186.00939322 C-80.48647536 186.02564548 -77.51394582 186.02948493 -74.54121733 186.03240538 C-72.74733517 186.04216448 -70.95345565 186.05242486 -69.15957975 186.06327391 C-68.3397209 186.06072096 -67.51986204 186.05816801 -66.67515898 186.0555377 C-61.05826998 186.10696649 -61.05826998 186.10696649 -58.83072233 188.33451414 C-58.27418523 193.5659629 -58.27418523 193.5659629 -60.14322233 196.14701414 C-63.91914842 198.80414732 -67.90268327 198.49509193 -72.31656218 198.51151609 C-73.08147537 198.51798532 -73.84638857 198.52445456 -74.63448095 198.53111982 C-77.18687149 198.5506698 -79.73921699 198.56227021 -82.29165983 198.57279539 C-83.61652655 198.58003032 -83.61652655 198.58003032 -84.96815825 198.5874114 C-91.71400668 198.62394374 -98.459785 198.63937084 -105.20572233 198.64701414 C-106.19436529 198.6484593 -107.18300825 198.64990446 -108.20161009 198.65139341 C-139.70260474 198.6887523 -170.87569568 197.96877148 -202.22677946 194.61307859 C-204.7755385 194.34041759 -207.325143 194.07757874 -209.87515593 193.81693602 C-226.01876994 192.14836853 -241.99620121 189.9516344 -257.83072233 186.33451414 C-257.38045631 187.62335591 -256.9217997 188.90926839 -256.45962858 190.19388914 C-256.2051193 190.91028563 -255.95061003 191.62668211 -255.68838835 192.36478758 C-253.71174265 196.90437696 -249.74493442 198.47211292 -245.42447233 200.28373289 C-239.53513667 202.59688723 -233.60986981 203.80536793 -227.39322233 204.89701414 C-225.62495085 205.21388182 -225.62495085 205.21388182 -223.82095671 205.53715086 C-213.7245633 207.28831957 -203.61159637 208.60772302 -193.413486 209.59550047 C-189.63658397 209.96146896 -185.86055406 210.33142491 -182.0861392 210.72228575 C-158.71755596 213.12966185 -135.58803279 213.74952543 -112.10574675 213.59879637 C-108.56063913 213.57969012 -105.01558286 213.57568366 -101.47043085 213.57193995 C-85.1424258 213.5531525 -68.81937186 213.4326196 -52.49869108 212.91654539 C-51.36642088 212.88300962 -50.23415068 212.84947386 -49.06756926 212.81492186 C-39.50607415 212.46457894 -30.20877863 211.19143936 -20.83072233 209.33451414 C-20.8516696 208.39357908 -20.87261686 207.45264402 -20.89419889 206.48319578 C-21.565645 171.76985721 -21.565645 171.76985721 -16.83072233 158.33451414 C-16.41396149 157.00641869 -15.99729719 155.67829294 -15.58072233 154.35013914 C-11.52106204 142.23046668 -4.19352784 134.80566363 6.74740267 128.49076414 C14.20645563 124.92966789 22.52178456 123.64118152 30.57943392 126.05717039 C32.58446324 127.01139437 34.34986564 128.06427948 36.16927767 129.33451414 C37.17990267 130.03576414 38.19052767 130.73701414 39.23177767 131.45951414 C49.92560538 141.02002859 55.39169405 155.57967585 56.40633821 169.61332273 C57.48081189 197.78449587 57.48081189 197.78449587 51.16927767 210.33451414 C50.83154329 211.00788816 50.49380892 211.68126219 50.14584017 212.37504148 C42.13506131 228.07346937 32.39331218 239.38863836 15.38802767 245.67826414 C1.93801751 249.65643616 -11.75113455 248.14135473 -24.01822233 241.64701414 C-29.67373101 236.99692923 -34.12825605 231.62838061 -37.83072233 225.33451414 C-38.66651823 225.37848074 -38.66651823 225.37848074 -39.51919889 225.42333555 C-60.3336689 226.47025013 -81.13796647 226.52220468 -101.97378874 226.51981688 C-106.87235125 226.51971459 -111.77077102 226.53347918 -116.6692996 226.55058908 C-120.51137243 226.56180644 -124.35341143 226.56373329 -128.19549894 226.56320715 C-130.00041534 226.56436831 -131.80533317 226.56868174 -133.61023283 226.57653952 C-143.38524885 226.61519902 -152.952205 226.32908654 -162.65179777 225.03424692 C-170.3913976 224.01918932 -177.03361223 223.2659962 -184.01822233 227.27201414 C-191.30679862 231.39928023 -197.88614754 231.53788783 -206.08072233 231.58451414 C-207.41683561 231.61545164 -207.41683561 231.61545164 -208.77994108 231.64701414 C-218.85869329 231.70552649 -227.41231557 229.38430442 -234.83072233 222.33451414 C-235.58224577 221.33935789 -236.33376921 220.34420164 -237.10806608 219.31888914 C-239.84520551 215.96634737 -243.04581227 214.71803055 -247.08072233 213.39701414 C-255.86335924 210.19749513 -263.36363242 205.92507166 -267.83072233 197.33451414 C-276.53129644 175.87834722 -274.21209083 144.03848447 -265.77505827 122.52250242 C-260.9462266 111.33429419 -254.97720738 99.5716995 -245.83072233 91.33451414 C-245.09724577 90.65646727 -244.36376921 89.97842039 -243.60806608 89.27982664 C-221.88901956 70.56259956 -185.14104223 63.47637518 -157.10245085 63.18314695 C-147.35718119 63.03996221 -142.93199122 61.27465213 -135.83072233 54.33451414 C-133.7246562 52.74880245 -131.6173189 51.21415189 -129.45572233 49.70951414 C-128.24984581 48.85816032 -127.04412299 48.00658876 -125.83853483 47.15482664 C-124.87608854 46.47855223 -124.87608854 46.47855223 -123.89419889 45.7886157 C-121.6770097 44.22619511 -119.46869368 42.65168025 -117.26040983 41.07670164 C-99.18044788 28.23333066 -80.78214166 16.09001105 -60.83072233 6.33451414 C-59.82642148 5.8219428 -59.82642148 5.8219428 -58.80183172 5.29901648 C-53.08931478 2.53556476 -48.0041146 1.52711833 -41.70328093 1.10551023 C-40.22384284 0.99292655 -40.22384284 0.99292655 -38.71451712 0.87806845 C-25.8272559 -0.004239 -12.91139802 0.00487016 0 0 Z " fill="#0368C0" transform="translate(387.83072233200073,387.66548585891724)"/>
<path d="M0 0 C-1.74055826 3.67678903 -3.95289355 6.43015548 -6.5625 9.5625 C-12.9736774 17.56856756 -16.8829832 26.67444801 -21 36 C-23.89614476 42.55401526 -26.53497245 48.33400737 -33 52 C-37.99662377 53.68091636 -42.52958412 54.28575881 -47.76318359 54.24291992 C-48.50789413 54.24481827 -49.25260468 54.24671661 -50.0198822 54.24867249 C-52.47950876 54.25236839 -54.93883705 54.24165851 -57.3984375 54.23046875 C-59.15109218 54.22927188 -60.90374752 54.22882486 -62.65640259 54.2290802 C-66.35007705 54.2275152 -70.04365467 54.21924959 -73.73730469 54.20581055 C-78.33631966 54.18924127 -82.93522537 54.18507419 -87.53426647 54.18562889 C-166.42761555 54.1832325 -166.42761555 54.1832325 -196 51 C-196 50.34 -196 49.68 -196 49 C-193.9453125 47.30078125 -193.9453125 47.30078125 -191.125 45.3125 C-190.22007812 44.66925781 -189.31515625 44.02601563 -188.3828125 43.36328125 C-187.25538065 42.57527424 -186.12775268 41.78754779 -185 41 C-184.25476074 40.47494873 -183.50952148 39.94989746 -182.74169922 39.40893555 C-173.28312838 32.75568451 -163.66217759 26.35286356 -154 20 C-152.87174805 19.2570166 -152.87174805 19.2570166 -151.72070312 18.49902344 C-137.40578867 9.13010394 -124.60911874 2.30652425 -107.20703125 1.46484375 C-105.89940071 1.40024208 -105.89940071 1.40024208 -104.56535339 1.33433533 C-101.64800605 1.19516586 -98.73038344 1.06492029 -95.8125 0.9375 C-94.8030835 0.89264465 -93.79366699 0.84778931 -92.75366211 0.80157471 C-61.85615741 -0.52488176 -30.9179634 -0.18423443 0 0 Z " fill="#F9F9F8" transform="translate(460,399)"/>
<path d="M0 0 C8.34845501 4.72153326 12.12742603 12.50010844 14.875 21.4375 C19.19654715 42.17196975 16.86285761 61.26613466 5.875 79.4375 C1.69690128 85.29856033 -2.97796953 90.52740867 -10.125 92.4375 C-15.43385529 93.1569597 -19.63062554 93.15701363 -24.5 90.8125 C-32.70125703 83.39231507 -37.30981364 74.16921077 -38.34741211 63.05517578 C-39.22422775 43.68226414 -37.52217037 23.10436874 -25.3984375 7.16796875 C-18.49244076 -0.32141128 -9.74294008 -4.27874365 0 0 Z " fill="#F9FAF8" transform="translate(416.125,526.5625)"/>
<path d="M0 0 C1.08410156 0.00257813 2.16820312 0.00515625 3.28515625 0.0078125 C4.90744141 0.00394531 4.90744141 0.00394531 6.5625 0 C9.34765625 0.1328125 9.34765625 0.1328125 11.34765625 1.1328125 C11.39392878 11.65934068 11.42949952 22.1858448 11.45128059 32.71245384 C11.46173265 37.60000568 11.47591769 42.48748811 11.49853516 47.375 C11.52021296 52.08877879 11.53221415 56.80249068 11.53741074 61.51631546 C11.54111562 63.31771524 11.54834999 65.11911122 11.55911636 66.92048264 C11.57356412 69.43714151 11.57563703 71.95352139 11.57470703 74.47021484 C11.58189758 75.22043411 11.58908813 75.97065338 11.59649658 76.74360657 C11.57576057 81.90470818 11.57576057 81.90470818 9.34765625 84.1328125 C6.88671875 84.3984375 6.88671875 84.3984375 3.97265625 84.3828125 C3.01617188 84.38796875 2.0596875 84.393125 1.07421875 84.3984375 C-1.65234375 84.1328125 -1.65234375 84.1328125 -3.81640625 83.03515625 C-4.42226563 82.73738281 -5.028125 82.43960938 -5.65234375 82.1328125 C-8.70225002 83.40768785 -8.70225002 83.40768785 -11.65234375 85.1328125 C-19.90469852 87.63858824 -27.12747747 86.04933846 -34.65234375 82.1328125 C-40.77721838 78.37497457 -44.46592068 72.56763173 -46.76953125 65.8984375 C-48.82899321 57.11382984 -49.39402258 46.06315845 -44.90234375 37.984375 C-44.48984375 37.37335937 -44.07734375 36.76234375 -43.65234375 36.1328125 C-43.23984375 35.50117187 -42.82734375 34.86953125 -42.40234375 34.21875 C-37.90514066 28.21396178 -30.97279491 24.57384619 -23.65234375 23.1328125 C-17.84312781 22.41940002 -13.52615882 22.88993247 -8.31640625 25.65625 C-6.99697021 26.34726807 -6.99697021 26.34726807 -5.65087891 27.05224609 C-4.9913623 27.40883301 -4.3318457 27.76541992 -3.65234375 28.1328125 C-3.65758057 27.32013916 -3.66281738 26.50746582 -3.66821289 25.67016602 C-3.68891369 22.01188928 -3.70198178 18.35362483 -3.71484375 14.6953125 C-3.72322266 13.41591797 -3.73160156 12.13652344 -3.74023438 10.81835938 C-3.74345703 9.60341797 -3.74667969 8.38847656 -3.75 7.13671875 C-3.75523682 6.01080322 -3.76047363 4.8848877 -3.76586914 3.72485352 C-3.61141089 0.19822281 -3.53054049 0.17678701 0 0 Z " fill="#026EC6" transform="translate(547.65234375,535.8671875)"/>
<path d="M0 0 C7.80536129 5.00445783 11.78245819 12.12983277 14 21 C14 24.63 14 28.26 14 32 C-0.52 32 -15.04 32 -30 32 C-26.48699496 40.61442111 -26.48699496 40.61442111 -20.0859375 45.44921875 C-12.94875635 47.33375535 -6.41147599 46.48449782 0 43 C0.33 42.67 0.66 42.34 1 42 C3.4375 41.75 3.4375 41.75 6 42 C8.34549674 45.51824511 8.57991403 46.85775694 8 51 C4.3529283 56.0588414 -0.03855539 57.94374404 -6 59 C-16.90405885 60.08067977 -25.7872627 59.65998192 -35 53 C-41.76967197 47.35040103 -45.27342073 39.91171314 -46.34375 31.203125 C-46.65400932 22.05047507 -44.57477416 13.95944619 -38.73046875 6.81640625 C-27.7320682 -4.72819026 -14.34644498 -7.23765263 0 0 Z " fill="#016DC6" transform="translate(609,562)"/>
<path d="M0 0 C9.4030358 -0.49652994 21.45453349 1.97995637 28.6171875 8.25 C29.203125 11.265625 29.203125 11.265625 28.9921875 14.5 C28.91097656 16.11648438 28.91097656 16.11648438 28.828125 17.765625 C28.75851562 18.58546875 28.68890625 19.4053125 28.6171875 20.25 C24.77423153 20.25 23.73550361 20.03467597 20.5546875 18.3125 C12.33164022 13.90898715 1.46347413 13.70542551 -7.546875 16.0859375 C-14.6462691 19.36089019 -19.54226154 24.60796638 -23.0390625 31.52734375 C-26.1443943 40.13019608 -25.67291181 49.6238448 -21.8203125 57.875 C-17.61434927 65.15151385 -12.48281013 69.70538671 -4.3828125 72.25 C-1.59765602 72.67201405 1.11619781 72.72601044 3.9296875 72.6875 C5.0424707 72.68157837 5.0424707 72.68157837 6.17773438 72.67553711 C12.13008523 72.52050094 19.18682121 71.68036629 23.6171875 67.25 C26.0546875 67.0625 26.0546875 67.0625 28.6171875 67.25 C31.16449792 69.79731042 30.97041894 71.69515279 31.17578125 75.1796875 C30.30457592 78.40863034 28.33809057 79.41862294 25.6171875 81.25 C17.40075765 85.64134085 9.53915445 86.73518425 0.3671875 86.8125 C-0.54281006 86.82700195 -1.45280762 86.84150391 -2.39038086 86.85644531 C-13.78336562 86.68721703 -22.3241882 81.92502425 -30.48046875 74.28515625 C-39.95699439 64.48979423 -42.10178401 54.61035866 -41.98144531 41.34301758 C-41.69595831 33.71802637 -40.32919859 27.87673503 -36.3828125 21.25 C-35.7640625 20.156875 -35.1453125 19.06375 -34.5078125 17.9375 C-26.79565138 8.18388446 -17.55498267 2.21478396 -5.015625 0.5 C-3.34298695 0.34117384 -1.67099005 0.17531699 0 0 Z " fill="#036DC5" transform="translate(748.3828125,534.75)"/>
<path d="M0 0 C5.30218692 4.04404087 8.37300737 9.63102838 9.32095337 16.23486328 C9.44384116 18.84305234 9.44582846 21.42074266 9.39453125 24.03125 C9.39124313 24.97057373 9.38795502 25.90989746 9.38456726 26.87768555 C9.37421692 28.84414705 9.35438857 30.81057982 9.32543945 32.77685547 C9.28096503 35.80062474 9.26393589 38.82359881 9.25195312 41.84765625 C9.23854413 43.76303243 9.22362536 45.67839877 9.20703125 47.59375 C9.19964432 48.50092773 9.19225739 49.40810547 9.18464661 50.34277344 C9.08711928 56.66288072 9.08711928 56.66288072 7.96875 57.78125 C5.99255553 57.90639928 4.01136827 57.9569776 2.03125 57.96875 C0.94972656 57.98292969 -0.13179687 57.99710938 -1.24609375 58.01171875 C-4.03125 57.78125 -4.03125 57.78125 -6.03125 55.78125 C-6.03125 54.79125 -6.03125 53.80125 -6.03125 52.78125 C-6.69125 52.78125 -7.35125 52.78125 -8.03125 52.78125 C-8.36125 53.77125 -8.69125 54.76125 -9.03125 55.78125 C-15.26256247 59.60500993 -21.88849543 59.5748894 -29.03125 58.78125 C-35.2790794 56.94829059 -38.8795692 53.52532994 -42.11328125 47.8984375 C-44.12731762 43.2532983 -43.53475469 38.29176406 -41.96875 33.59375 C-33.46032647 21.24281262 -18.73323217 19.58732042 -5.03125 16.78125 C-6.36262704 14.25163362 -7.44874152 12.21978246 -9.75390625 10.484375 C-13.03066986 9.47268126 -16.04626595 9.51768217 -19.46875 9.53125 C-20.76683594 9.52609375 -22.06492187 9.5209375 -23.40234375 9.515625 C-26.79929843 9.76427184 -28.95622816 10.44001707 -32.03125 11.78125 C-34.84375 11.40625 -34.84375 11.40625 -37.03125 10.78125 C-37.03125 7.48125 -37.03125 4.18125 -37.03125 0.78125 C-25.32718569 -5.26584989 -11.91391537 -7.14834922 0 0 Z " fill="#036DC5" transform="translate(826.03125,562.21875)"/>
<path d="M0 0 C5.31841466 4.05641796 8.39792419 9.65002681 9.31408691 16.2805481 C9.42778406 18.95820521 9.41976286 21.60583536 9.359375 24.28515625 C9.35371521 25.2490477 9.34805542 26.21293915 9.34222412 27.20603943 C9.32002407 30.25247121 9.26985936 33.29768016 9.21875 36.34375 C9.19866381 38.42250893 9.18041677 40.50128649 9.1640625 42.58007812 C9.1202131 47.64759892 9.05130081 52.71421791 8.96875 57.78125 C6.86570523 57.8892523 4.76108091 57.96683987 2.65625 58.03125 C1.48449219 58.07765625 0.31273437 58.1240625 -0.89453125 58.171875 C-4.03125 57.78125 -4.03125 57.78125 -5.94921875 55.765625 C-6.30628906 55.11078125 -6.66335938 54.4559375 -7.03125 53.78125 C-7.959375 54.420625 -8.8875 55.06 -9.84375 55.71875 C-15.89316887 59.63307986 -22.0038767 59.52053632 -29.03125 58.78125 C-35.17139447 56.46185374 -39.24990149 52.16581217 -42.28125 46.40625 C-43.47182913 42.23922304 -43.92322751 38.74949788 -42.0859375 34.6953125 C-36.79421048 25.74264225 -29.66578929 22.76942919 -19.86376953 20.21679688 C-14.93598787 18.99750932 -9.98849607 17.87382006 -5.03125 16.78125 C-5.13738836 14.32900306 -5.13738836 14.32900306 -6.03125 11.78125 C-10.03864867 9.26144629 -14.43680326 9.48038897 -19.03125 9.53125 C-19.72992187 9.52351562 -20.42859375 9.51578125 -21.1484375 9.5078125 C-25.26438133 9.52334436 -28.29013286 10.12897923 -32.03125 11.78125 C-34.84375 11.40625 -34.84375 11.40625 -37.03125 10.78125 C-37.03125 7.48125 -37.03125 4.18125 -37.03125 0.78125 C-25.32718569 -5.26584989 -11.91391537 -7.14834922 0 0 Z " fill="#036EC5" transform="translate(668.03125,562.21875)"/>
<path d="M0 0 C1.765625 1.28515625 1.765625 1.28515625 3 3 C3.328125 5.4453125 3.328125 5.4453125 3.25 8.125 C3.23453125 9.01445313 3.2190625 9.90390625 3.203125 10.8203125 C3 13 3 13 2 14 C-1.35495 13.67740865 -4.2839752 13.32032689 -7.375 11.9375 C-11.15106451 10.58890553 -15.03843979 10.31006536 -19 11 C-20.80823933 12.27654331 -20.80823933 12.27654331 -22 14 C-22.40127511 16.58256854 -22.40127511 16.58256854 -21 19 C-18.29905396 20.22770274 -15.81398454 21.1281261 -13 22 C1.88040916 27.3078095 1.88040916 27.3078095 5.9375 34.375 C7.54404448 39.85615174 7.71826441 43.89922624 5.375 49.125 C2.72175555 53.94568358 -0.49358809 56.95381332 -5.6484375 59.10546875 C-14.22975526 61.39582046 -24.95821173 61.61062313 -33 57.625 C-35.36186671 56.22264164 -37.05247483 54.94752517 -39 53 C-39.265625 50.90625 -39.265625 50.90625 -39.25 48.5 C-39.25515625 47.7059375 -39.2603125 46.911875 -39.265625 46.09375 C-39 44 -39 44 -37 42 C-33.60954106 42.19943876 -31.2986714 43.39100486 -28.4375 45.0625 C-23.26552954 47.76177601 -17.7023347 47.90422736 -12 47 C-9.6807719 45.58588763 -9.6807719 45.58588763 -8 44 C-8.14769003 41.55416767 -8.14769003 41.55416767 -9 39 C-10.97974825 37.66447743 -10.97974825 37.66447743 -13.5 36.9375 C-14.40234375 36.61652344 -15.3046875 36.29554688 -16.234375 35.96484375 C-17.60335937 35.48724609 -17.60335937 35.48724609 -19 35 C-34.23847225 28.81240378 -34.23847225 28.81240378 -38 21 C-38.94530095 15.73458537 -38.58203352 11.31860917 -35.9375 6.625 C-27.80040908 -4.80841954 -11.89642487 -5.39334187 0 0 Z " fill="#046DC4" transform="translate(918,561)"/>
<path d="M0 0 C2.14576637 -0.02685938 4.29162645 -0.04633088 6.4375 -0.0625 C7.63246094 -0.07410156 8.82742188 -0.08570313 10.05859375 -0.09765625 C13 0 13 0 14 1 C14.09507821 3.58639038 14.12556376 6.1459856 14.11352539 8.73266602 C14.11367142 9.5423584 14.11381744 10.35205078 14.1139679 11.1862793 C14.11326854 13.87551508 14.1054751 16.56468249 14.09765625 19.25390625 C14.09579215 21.11335716 14.09436821 22.97280856 14.09336853 24.83226013 C14.08954271 29.73629096 14.07971188 34.64029236 14.06866455 39.54431152 C14.05845181 44.54451092 14.05387121 49.54471506 14.04882812 54.54492188 C14.03808967 64.36329421 14.02101248 74.18164466 14 84 C11.85423363 84.02685938 9.70837355 84.04633088 7.5625 84.0625 C6.36753906 84.07410156 5.17257812 84.08570313 3.94140625 84.09765625 C1 84 1 84 0 83 C-0.09507821 80.41360962 -0.12556376 77.8540144 -0.11352539 75.26733398 C-0.11367142 74.4576416 -0.11381744 73.64794922 -0.1139679 72.8137207 C-0.11326854 70.12448492 -0.1054751 67.43531751 -0.09765625 64.74609375 C-0.09579215 62.88664284 -0.09436821 61.02719144 -0.09336853 59.16773987 C-0.08954271 54.26370904 -0.07971188 49.35970764 -0.06866455 44.45568848 C-0.05845181 39.45548908 -0.05387121 34.45528494 -0.04882812 29.45507812 C-0.03808967 19.63670579 -0.02101248 9.81835534 0 0 Z " fill="#006FC7" transform="translate(686,536)"/>
<path d="M0 0 C1 1 1 1 1.09765625 3.94140625 C1.08605469 5.13636719 1.07445312 6.33132813 1.0625 7.5625 C1.05347656 8.76003906 1.04445313 9.95757813 1.03515625 11.19140625 C1.02355469 12.11824219 1.01195312 13.04507813 1 14 C0.34773437 14.24234375 -0.30453125 14.4846875 -0.9765625 14.734375 C-11.3216674 18.61173272 -11.3216674 18.61173272 -18 27 C-18.29500513 29.69279824 -18.44096842 32.16517159 -18.44140625 34.85546875 C-18.45461411 35.59831619 -18.46782196 36.34116364 -18.48143005 37.10652161 C-18.52215998 39.46688686 -18.5439616 41.82686377 -18.5625 44.1875 C-18.58628198 46.55873135 -18.6143446 48.92959683 -18.65428162 51.3006134 C-18.67865668 52.77288533 -18.69350062 54.24535207 -18.69789124 55.71781921 C-18.77543296 60.77543296 -18.77543296 60.77543296 -21 63 C-23.56640625 63.23046875 -23.56640625 63.23046875 -26.5625 63.1875 C-27.55378906 63.18105469 -28.54507813 63.17460938 -29.56640625 63.16796875 C-32 63 -32 63 -33 62 C-33.10422936 60.2003634 -33.13854102 58.396634 -33.14526367 56.59399414 C-33.15164352 55.43932144 -33.15802338 54.28464874 -33.16459656 53.09498596 C-33.16570938 51.83774216 -33.1668222 50.58049835 -33.16796875 49.28515625 C-33.17129715 48.00394394 -33.17462555 46.72273163 -33.17805481 45.4026947 C-33.18405192 42.6865047 -33.18589413 39.97034655 -33.18530273 37.25415039 C-33.1852011 33.76909408 -33.19885216 30.28424145 -33.21607494 26.79923344 C-33.22985066 23.48203767 -33.22928324 20.1648803 -33.23046875 16.84765625 C-33.23765427 15.59243668 -33.24483978 14.3372171 -33.25224304 13.04396057 C-33.24916641 11.88613571 -33.24608978 10.72831085 -33.24291992 9.53540039 C-33.24434494 8.51249405 -33.24576996 7.48958771 -33.24723816 6.4356842 C-33 4 -33 4 -31 2 C-28.6875 1.734375 -28.6875 1.734375 -26 1.75 C-25.113125 1.74484375 -24.22625 1.7396875 -23.3125 1.734375 C-21 2 -21 2 -19 4 C-19 4.99 -19 5.98 -19 7 C-17.95199219 6.36771484 -17.95199219 6.36771484 -16.8828125 5.72265625 C-15.97273437 5.17480469 -15.06265625 4.62695312 -14.125 4.0625 C-13.22007812 3.51722656 -12.31515625 2.97195313 -11.3828125 2.41015625 C-7.3088389 -0.00083469 -4.7823089 -0.17390214 0 0 Z " fill="#026CC5" transform="translate(876,558)"/>
<path d="M0 0 C-3.85206065 7.97779868 -10.99483045 13.43129975 -19 17 C-30.17795873 20.19903719 -41.32935638 21.20660983 -52.90600586 21.24023438 C-54.9292889 21.24996053 -56.95156277 21.28106259 -58.97460938 21.3125 C-66.03540794 21.34058871 -71.60801569 21.10211244 -78 18 C-78 16.68 -78 15.36 -78 14 C-68.10848106 10.14616145 -58.28354301 6.68153147 -48 4 C-47.24976563 3.79632812 -46.49953125 3.59265625 -45.7265625 3.3828125 C-30.72990792 -0.35198653 -15.34227727 -0.27828883 0 0 Z " fill="#F4F7F7" transform="translate(356,509)"/>
<path d="M0 0 C4.02747202 1.52231052 6.57595397 3.36393096 9 7 C9.42968335 10.25604494 9.32422759 13.53112141 9.3125 16.8125 C9.32861328 17.70259766 9.34472656 18.59269531 9.36132812 19.50976562 C9.36520971 24.74602471 9.00039781 28.51335862 6 33 C1.79155918 36.13570101 -1.51767237 37.75544747 -6.9453125 37.44921875 C-10.83929506 36.59787275 -14.12524803 34.74089434 -17 32 C-19.86304881 27.44276176 -20.43207019 23.84292861 -20.4375 18.5 C-20.45683594 17.2315625 -20.47617187 15.963125 -20.49609375 14.65625 C-19.74993764 9.1570207 -17.03564861 6.13428181 -13.375 2.125 C-8.80871932 -0.75006562 -5.26285417 -0.91455602 0 0 Z " fill="#F6F9F9" transform="translate(535,572)"/>
<path d="M0 0 C1.08152344 -0.01417969 2.16304688 -0.02835938 3.27734375 -0.04296875 C6.0625 0.1875 6.0625 0.1875 8.0625 2.1875 C8.30973816 4.6231842 8.30973816 4.6231842 8.30541992 7.72290039 C8.30849655 8.88072525 8.31157318 10.03855011 8.31474304 11.23146057 C8.30755753 12.48668015 8.30037201 13.74189972 8.29296875 15.03515625 C8.29228142 16.95840981 8.29228142 16.95840981 8.2915802 18.92051697 C8.29001538 21.63497324 8.28172513 24.34929761 8.26831055 27.0637207 C8.2513037 30.5499199 8.24749668 34.0359743 8.24825573 37.52221012 C8.2479191 40.83904504 8.23908537 44.15583206 8.23046875 47.47265625 C8.22935593 48.72990005 8.2282431 49.98714386 8.22709656 51.28248596 C8.22071671 52.43715866 8.21433685 53.59183136 8.20776367 54.78149414 C8.20395187 55.80360489 8.20014008 56.82571564 8.19621277 57.87879944 C8.0625 60.1875 8.0625 60.1875 7.0625 61.1875 C4.87610547 61.26008946 2.68749611 61.27123783 0.5 61.25 C-1.29630859 61.23646484 -1.29630859 61.23646484 -3.12890625 61.22265625 C-4.05574219 61.21105469 -4.98257812 61.19945312 -5.9375 61.1875 C-7.25288313 58.55673375 -7.06460325 56.59803669 -7.06689453 53.65209961 C-7.07004669 52.49427475 -7.07319885 51.33644989 -7.07644653 50.14353943 C-7.0744223 48.88831985 -7.07239807 47.63310028 -7.0703125 46.33984375 C-7.07126923 45.05767471 -7.07222595 43.77550568 -7.07321167 42.45448303 C-7.07468671 39.74006955 -7.07253994 37.02568896 -7.06787109 34.3112793 C-7.06216822 30.82508959 -7.06545754 27.33897677 -7.07144356 23.85278988 C-7.07591655 20.53596826 -7.07278929 17.21916756 -7.0703125 13.90234375 C-7.07233673 12.64509995 -7.07436096 11.38785614 -7.07644653 10.09251404 C-7.07329437 8.93784134 -7.07014221 7.78316864 -7.06689453 6.59350586 C-7.06609894 5.57139511 -7.06530334 4.54928436 -7.06448364 3.49620056 C-6.81406117 -1.05675198 -3.92538006 0.02333757 0 0 Z " fill="#046EC6" transform="translate(485.9375,558.8125)"/>
<path d="M0 0 C1.69140625 1.45703125 1.69140625 1.45703125 3 3 C3.125 5.375 3.125 5.375 2 8 C-2.78550422 12.37043498 -7.14239655 14.04745413 -13.59375 14.4296875 C-14.7075 14.50316406 -15.82125 14.57664062 -16.96875 14.65234375 C-19.29130705 14.79878817 -21.61422899 14.93957463 -23.9375 15.07421875 C-30.42188679 15.51295593 -36.3571333 16.38657344 -42.58007812 18.28564453 C-45.0680058 19.02007516 -47.42192896 19.68617152 -50 20 C-50.66 19.34 -51.32 18.68 -52 18 C-51.51064945 12.15657868 -48.2786344 8.73102761 -44 5 C-31.43999883 -2.82849388 -13.84021725 -7.32717384 0 0 Z " fill="#036BC4" transform="translate(503,447)"/>
<path d="M0 0 C2.14576637 -0.02685938 4.29162645 -0.04633088 6.4375 -0.0625 C7.63246094 -0.07410156 8.82742188 -0.08570313 10.05859375 -0.09765625 C13 0 13 0 14 1 C14.09507821 3.58639038 14.12556376 6.1459856 14.11352539 8.73266602 C14.11367142 9.5423584 14.11381744 10.35205078 14.1139679 11.1862793 C14.11326854 13.87551508 14.1054751 16.56468249 14.09765625 19.25390625 C14.09579215 21.11335716 14.09436821 22.97280856 14.09336853 24.83226013 C14.08954271 29.73629096 14.07971188 34.64029236 14.06866455 39.54431152 C14.05845181 44.54451092 14.05387121 49.54471506 14.04882812 54.54492188 C14.03808967 64.36329421 14.02101248 74.18164466 14 84 C11.85423363 84.02685938 9.70837355 84.04633088 7.5625 84.0625 C6.36753906 84.07410156 5.17257812 84.08570313 3.94140625 84.09765625 C1 84 1 84 0 83 C-0.09507821 80.41360962 -0.12556376 77.8540144 -0.11352539 75.26733398 C-0.11367142 74.4576416 -0.11381744 73.64794922 -0.1139679 72.8137207 C-0.11326854 70.12448492 -0.1054751 67.43531751 -0.09765625 64.74609375 C-0.09579215 62.88664284 -0.09436821 61.02719144 -0.09336853 59.16773987 C-0.08954271 54.26370904 -0.07971188 49.35970764 -0.06866455 44.45568848 C-0.05845181 39.45548908 -0.05387121 34.45528494 -0.04882812 29.45507812 C-0.03808967 19.63670579 -0.02101248 9.81835534 0 0 Z M2 2 C2 28.4 2 54.8 2 82 C5.3 82 8.6 82 12 82 C12 55.6 12 29.2 12 2 C8.7 2 5.4 2 2 2 Z " fill="#0368C0" transform="translate(686,536)"/>
<path d="M0 0 C-0.25597176 7.03922329 -2.35473213 11.67255993 -7 17 C-10.96704091 19.72734063 -14.20718611 20.81579811 -19 20 C-22.0099077 17.70985284 -23.69783903 16.20864386 -24.625 12.5 C-23.70082448 8.8032979 -21.90880529 7.43976516 -19 5 C-16.17786883 3.75247545 -13.29537254 2.95915066 -10.3125 2.1875 C-9.54099609 1.97158203 -8.76949219 1.75566406 -7.97460938 1.53320312 C-2.4015377 0 -2.4015377 0 0 0 Z " fill="#F0F6F8" transform="translate(822,590)"/>
<path d="M0 0 C-0.57732364 6.92788365 -2.4330096 12.61636606 -7.625 17.4375 C-11.65531476 20.08902287 -14.11649273 20.49662786 -19 20 C-22.06965937 17.71408345 -23.68875582 16.24497671 -24.625 12.5 C-23.70082448 8.8032979 -21.90880529 7.43976516 -19 5 C-16.17786883 3.75247545 -13.29537254 2.95915066 -10.3125 2.1875 C-9.54099609 1.97158203 -8.76949219 1.75566406 -7.97460938 1.53320312 C-2.4015377 0 -2.4015377 0 0 0 Z " fill="#EFF5F7" transform="translate(664,590)"/>
<path d="M0 0 C4.39638531 2.23966799 6.92615591 4.50667114 9 9 C9 9.99 9 10.98 9 12 C0.09 12 -8.82 12 -18 12 C-15.79492012 5.38476037 -15.17214967 4.77135914 -10 1 C-6.78314421 -0.60842789 -3.4888991 -0.46778535 0 0 Z " fill="#F5F9F9" transform="translate(598,571)"/>
<path d="M0 0 C13.2240316 0.10856803 26.44801986 0.22139275 39.67197132 0.33933926 C45.81539755 0.39400637 51.95882873 0.44732223 58.10229492 0.49731445 C64.05463086 0.54580502 70.00692254 0.59815225 75.95920372 0.65294075 C78.2060298 0.6729889 80.45286781 0.69175266 82.69971657 0.70907402 C99.14795683 0.83712193 115.56569786 1.3117875 132 2 C132 2.33 132 2.66 132 3 C115.08464869 3.02333705 98.16930239 3.04098315 81.25393867 3.05181217 C73.40024401 3.05697341 65.54655934 3.06401285 57.69287109 3.07543945 C50.84940105 3.08539153 44.00593824 3.09185468 37.16246116 3.09408849 C33.53727503 3.09539471 29.9121096 3.09847495 26.28693008 3.10573006 C22.24482547 3.11375431 18.20275708 3.1139908 14.16064453 3.11352539 C12.95223907 3.11712067 11.74383362 3.12071594 10.49880981 3.12442017 C9.40222046 3.1230455 8.3056311 3.12167084 7.17581177 3.12025452 C5.74058009 3.12163721 5.74058009 3.12163721 4.27635384 3.12304783 C2 3 2 3 0 2 C0 1.34 0 0.68 0 0 Z " fill="#045EB9" transform="translate(290,461)"/>
<path d="M0 0 C2.75502757 0.539372 4.07712005 1.38433418 6.03515625 3.3984375 C6.53125 6.02734375 6.53125 6.02734375 6.47265625 8.9609375 C6.47136719 9.93160156 6.47007812 10.90226563 6.46875 11.90234375 C6.25412109 13.13791016 6.25412109 13.13791016 6.03515625 14.3984375 C2.93734677 16.46364382 2.08110815 16.69320774 -1.46484375 16.7109375 C-2.625 16.73607422 -2.625 16.73607422 -3.80859375 16.76171875 C-5.96484375 16.3984375 -5.96484375 16.3984375 -7.72265625 15.19140625 C-9.36281763 12.82400351 -9.36539436 11.26010615 -9.33984375 8.3984375 C-9.34757812 7.5321875 -9.3553125 6.6659375 -9.36328125 5.7734375 C-8.96484375 3.3984375 -8.96484375 3.3984375 -7.6875 1.609375 C-5.25659622 -0.09942358 -2.89896424 0.03351404 0 0 Z " fill="#026FC6" transform="translate(487.96484375,535.6015625)"/>
<path d="M0 0 C1.65 0.33 3.3 0.66 5 1 C5 27.73 5 54.46 5 82 C3.515 82.495 3.515 82.495 2 83 C2.33 56.27 2.66 29.54 3 2 C1.35 2 -0.3 2 -2 2 C-1.34 1.34 -0.68 0.68 0 0 Z " fill="#1775C3" transform="translate(554,536)"/>
<path d="M0 0 C24.34936699 -0.16896646 48.66096611 0.31377649 73 1 C73 1.33 73 1.66 73 2 C20.81479324 3.94350612 20.81479324 3.94350612 0 1 C0 0.67 0 0.34 0 0 Z " fill="#116DBC" transform="translate(264,451)"/>
<path d="M0 0 C4.46590705 0.11863817 8.93161173 0.24291148 13.3972168 0.37231445 C14.91507755 0.41551548 16.43298226 0.45720048 17.95092773 0.49731445 C20.13799259 0.55537812 22.32483918 0.61896656 24.51171875 0.68359375 C26.48338013 0.73858032 26.48338013 0.73858032 28.49487305 0.79467773 C31.44699698 0.96760636 34.12950496 1.32160714 37 2 C37 2.33 37 2.66 37 3 C24.79 3 12.58 3 0 3 C0 2.01 0 1.02 0 0 Z " fill="#1269BB" transform="translate(208,521)"/>
<path d="M0 0 C0 3.71929745 -0.8134585 4.18928252 -3.3125 6.8125 C-8.84766849 12.62616753 -10.46928943 18.09987643 -11.1875 25.875 C-11.26935547 26.65875 -11.35121094 27.4425 -11.43554688 28.25 C-11.63411675 30.16561529 -11.81851747 32.08269042 -12 34 C-12.66 33.67 -13.32 33.34 -14 33 C-14.53969164 22.48600722 -13.31896361 14.03954506 -6.5625 5.6953125 C-4.55983934 3.52242569 -2.41225447 1.70276786 0 0 Z " fill="#116CC0" transform="translate(577,563)"/>
<path d="M0 0 C0.66 0 1.32 0 2 0 C2 11.22 2 22.44 2 34 C-0.77660223 29.83509665 -1.12773887 27.95250319 -1.1328125 22.96875 C-1.13410156 21.76605469 -1.13539062 20.56335938 -1.13671875 19.32421875 C-1.13285156 18.06222656 -1.12898438 16.80023437 -1.125 15.5 C-1.12886719 14.23800781 -1.13273437 12.97601562 -1.13671875 11.67578125 C-1.13542969 10.47308594 -1.13414063 9.27039063 -1.1328125 8.03125 C-1.13168457 6.92330078 -1.13055664 5.81535156 -1.12939453 4.67382812 C-1 2 -1 2 0 0 Z " fill="#136BBA" transform="translate(117,540)"/>
<path d="M0 0 C0 0.33 0 0.66 0 1 C-1.01320313 0.97679687 -2.02640625 0.95359375 -3.0703125 0.9296875 C-4.42186758 0.9109159 -5.77343069 0.8927172 -7.125 0.875 C-7.79015625 0.85824219 -8.4553125 0.84148438 -9.140625 0.82421875 C-13.52712445 0.78121385 -16.9032102 1.51025825 -21 3 C-23.33212027 3.07522969 -25.6685311 3.09325876 -28 3 C-21.63566414 -3.36433586 -7.55413148 -4.59100969 0 0 Z " fill="#1975C2" transform="translate(818,560)"/>
<path d="M0 0 C3.48479029 0.42670901 6.71880462 0.9081811 10.0625 2 C15.8169764 3.77672774 22.02750162 3.685222 28 4 C28 4.66 28 5.32 28 6 C17.51725767 6.55301689 9.29421626 6.62069234 0 1 C0 0.67 0 0.34 0 0 Z " fill="#0E6CC1" transform="translate(575,615)"/>
<path d="M0 0 C0.99 0.33 1.98 0.66 3 1 C2.14535156 1.73605469 1.29070313 2.47210937 0.41015625 3.23046875 C-0.70626131 4.21554307 -1.82211757 5.20125378 -2.9375 6.1875 C-3.50146484 6.67025391 -4.06542969 7.15300781 -4.64648438 7.65039062 C-7.21239245 9.93973376 -8.85774386 11.53656112 -9.87890625 14.86328125 C-9.91886719 15.56839844 -9.95882812 16.27351562 -10 17 C-10.99 17 -11.98 17 -13 17 C-13.33 18.98 -13.66 20.96 -14 23 C-14.33 23 -14.66 23 -15 23 C-14.44150431 14.06406894 -9.81196359 8.44224394 -3.55078125 2.34765625 C-2 1 -2 1 0 0 Z " fill="#0763BD" transform="translate(725,542)"/>
<path d="M0 0 C0.33 0 0.66 0 1 0 C3.97175855 29.09320002 3.97175855 29.09320002 3 36 C2.01 36.99 1.02 37.98 0 39 C0.66 34.05 1.32 29.1 2 24 C1.34 24 0.68 24 0 24 C0.33 19.05 0.66 14.1 1 9 C0.34 9 -0.32 9 -1 9 C-0.67 6.03 -0.34 3.06 0 0 Z " fill="#2483C8" transform="translate(602,469)"/>
<path d="M0 0 C0.66 0.66 1.32 1.32 2 2 C1.0479279 3.00596297 0.08812654 4.00461563 -0.875 5 C-1.40867188 5.556875 -1.94234375 6.11375 -2.4921875 6.6875 C-4 8 -4 8 -6 8 C-6 8.66 -6 9.32 -6 10 C-6.66 10 -7.32 10 -8 10 C-8.28875 10.928125 -8.5775 11.85625 -8.875 12.8125 C-10 16 -10 16 -12 19 C-12.66 19 -13.32 19 -14 19 C-11.07145807 11.15371784 -6.73727667 4.97275183 0 0 Z " fill="#1167BB" transform="translate(144,478)"/>
<path d="M0 0 C5.40054489 0.82670571 10.8989798 1.00419082 16.34765625 1.359375 C16.67765625 2.349375 17.00765625 3.339375 17.34765625 4.359375 C11.3202373 4.52526726 5.77270832 3.93051633 -0.15234375 2.859375 C-0.97476563 2.71628906 -1.7971875 2.57320312 -2.64453125 2.42578125 C-4.64819002 2.07630588 -6.65042673 1.71869344 -8.65234375 1.359375 C-5.38708124 -0.46945228 -3.70652258 -0.68428109 0 0 Z " fill="#1E78BF" transform="translate(154.65234375,575.640625)"/>
<path d="M0 0 C6.79273689 -0.33165262 11.9786115 -0.33098087 18 3 C20 5 20 5 20.1953125 7.3828125 C20.17210937 8.28773438 20.14890625 9.19265625 20.125 10.125 C20.10695313 11.03507813 20.08890625 11.94515625 20.0703125 12.8828125 C20.04710937 13.58148437 20.02390625 14.28015625 20 15 C19.01 14.67 18.02 14.34 17 14 C17.06510417 11.98177083 17.13020833 9.96354167 17.1953125 7.9453125 C17.18331689 5.76136355 17.18331689 5.76136355 15 4 C12.450504 3.37551671 9.95279906 2.84109651 7.375 2.375 C6.31539062 2.17390625 6.31539062 2.17390625 5.234375 1.96875 C3.49088082 1.63889975 1.74559611 1.31853944 0 1 C0 0.67 0 0.34 0 0 Z " fill="#0562BB" transform="translate(901,559)"/>
<path d="M0 0 C0.33 0 0.66 0 1 0 C1 7.92 1 15.84 1 24 C-2.96 24 -6.92 24 -11 24 C-12 23 -12 23 -12.0625 20.4375 C-12.041875 19.633125 -12.02125 18.82875 -12 18 C-11.34 18.99 -10.68 19.98 -10 21 C-6.7 21.33 -3.4 21.66 0 22 C0 14.74 0 7.48 0 0 Z " fill="#0060BD" transform="translate(675,596)"/>
<path d="M0 0 C0.66 0 1.32 0 2 0 C1.7610845 2.11610875 1.52131503 4.23212443 1.27734375 6.34765625 C1.09167833 8.12324528 0.93825778 9.90248728 0.81640625 11.68359375 C0.75324219 12.55113281 0.69007812 13.41867187 0.625 14.3125 C0.57601562 15.11300781 0.52703125 15.91351562 0.4765625 16.73828125 C-0.09332631 19.44291748 -1.21966547 20.91976955 -3 23 C-3.41467342 14.98298054 -1.85939879 7.78069851 0 0 Z " fill="#0A65B9" transform="translate(120,516)"/>
<path d="M0 0 C0.33 0 0.66 0 1 0 C1.42317708 2.01822917 1.84635417 4.03645833 2.26953125 6.0546875 C2.92308838 8.37046549 2.92308838 8.37046549 6 10 C11.69926325 10.64519961 14.51451463 9.50086663 19 6 C19.66 6.33 20.32 6.66 21 7 C18.18539786 10.54095108 15.99980141 12.35792849 11.5625 13.0625 C6.96313712 13.34612738 4.49449618 12.06833811 1 9 C-1.14809171 5.77786243 -1.29386153 4.72224599 -1 1 C-0.67 0.67 -0.34 0.34 0 0 Z " fill="#025FBC" transform="translate(639,599)"/>
<path d="M0 0 C15.84 0.495 15.84 0.495 32 1 C32 1.33 32 1.66 32 2 C19.79 2.33 7.58 2.66 -5 3 C-5 2.67 -5 2.34 -5 2 C-3.35 1.67 -1.7 1.34 0 1 C0 0.67 0 0.34 0 0 Z " fill="#2685C6" transform="translate(360,398)"/>
<path d="M0 0 C6.93 0.33 13.86 0.66 21 1 C21 1.66 21 2.32 21 3 C18.06195004 3.08086376 15.12611925 3.1404283 12.1875 3.1875 C11.35412109 3.21263672 10.52074219 3.23777344 9.66210938 3.26367188 C8.45844727 3.27817383 8.45844727 3.27817383 7.23046875 3.29296875 C6.12288208 3.31653442 6.12288208 3.31653442 4.99291992 3.34057617 C3 3 3 3 0 0 Z " fill="#277BC3" transform="translate(375,632)"/>
<path d="M0 0 C3.84177074 0.30329769 6.09427672 1.52475424 9 4 C4.545 3.01 4.545 3.01 0 2 C0.13086126 7.94757926 0.13086126 7.94757926 3.5625 12.5 C4.366875 12.995 5.17125 13.49 6 14 C0.25 13.25 0.25 13.25 -2 11 C-2.265625 8.90625 -2.265625 8.90625 -2.25 6.5 C-2.25515625 5.7059375 -2.2603125 4.911875 -2.265625 4.09375 C-2 2 -2 2 0 0 Z " fill="#0C6CBE" transform="translate(881,603)"/>
<path d="M0 0 C8.42604901 -0.1371328 15.99191463 0.07021267 24 3 C24 3.33 24 3.66 24 4 C18.39258264 4.10103455 13.05193239 3.76082036 7.5 3 C6.77296875 2.90460937 6.0459375 2.80921875 5.296875 2.7109375 C3.53064133 2.47853833 1.76522594 2.23993362 0 2 C0 1.34 0 0.68 0 0 Z " fill="#1569BC" transform="translate(161,518)"/>
<path d="M0 0 C2.25808519 1.1290426 4.37734305 2.24527298 6.5 3.625 C11.6293939 5.64011903 16.55387186 5.23793764 22 5 C21.67 5.66 21.34 6.32 21 7 C16.07569949 8.6414335 12.22023236 8.41363809 7.3125 6.75 C4.2140915 5.11310494 2.22903348 3.67484017 0 1 C0 0.67 0 0.34 0 0 Z " fill="#0462BE" transform="translate(516,603)"/>
<path d="M0 0 C0.33 0 0.66 0 1 0 C1.08096803 1.45742463 1.13917774 2.91612807 1.1875 4.375 C1.22230469 5.18710937 1.25710938 5.99921875 1.29296875 6.8359375 C1.19628906 7.55007813 1.09960938 8.26421875 1 9 C-2.20380017 11.13586678 -3.01939967 11.23132175 -6.6875 11.125 C-7.49574219 11.10695313 -8.30398438 11.08890625 -9.13671875 11.0703125 C-10.05904297 11.03550781 -10.05904297 11.03550781 -11 11 C-11 10.01 -11 9.02 -11 8 C-7.7 8 -4.4 8 -1 8 C-0.67 5.36 -0.34 2.72 0 0 Z " fill="#0F69BF" transform="translate(493,541)"/>
<path d="M0 0 C0.66 0 1.32 0 2 0 C3.72330907 7.09326321 4.2494783 13.70968976 4 21 C3.67 21 3.34 21 3 21 C2.80083984 19.60974609 2.80083984 19.60974609 2.59765625 18.19140625 C2.42105469 16.99386719 2.24445313 15.79632812 2.0625 14.5625 C1.88847656 13.36753906 1.71445312 12.17257812 1.53515625 10.94140625 C1.31014787 8.12044324 1.31014787 8.12044324 0 7 C-0.04092937 4.66702567 -0.04241723 2.33294775 0 0 Z " fill="#126FC0" transform="translate(440,544)"/>
<path d="M0 0 C0.89203125 0.00902344 1.7840625 0.01804687 2.703125 0.02734375 C3.37859375 0.03894531 4.0540625 0.05054688 4.75 0.0625 C4.42 1.0525 4.09 2.0425 3.75 3.0625 C-1.2 3.0625 -6.15 3.0625 -11.25 3.0625 C-7.92392552 -0.26357448 -4.54621004 -0.05981855 0 0 Z " fill="#2982C7" transform="translate(593.25,557.9375)"/>
<path d="M0 0 C-1 3 -1 3 -3 4.1875 C-6.99281524 5.26888746 -10.88773841 5.52365878 -15 5 C-15.99 4.34 -16.98 3.68 -18 3 C-17.18015625 2.95101562 -16.3603125 2.90203125 -15.515625 2.8515625 C-14.43796875 2.77679687 -13.3603125 2.70203125 -12.25 2.625 C-11.18265625 2.55539062 -10.1153125 2.48578125 -9.015625 2.4140625 C-5.74696712 1.96525714 -3.1830482 0 0 0 Z " fill="#0461BC" transform="translate(658,616)"/>
<path d="M0 0 C0.66 0.33 1.32 0.66 2 1 C3.66565749 1.15222973 5.33656496 1.24917215 7.0078125 1.31640625 C7.99394531 1.35830078 8.98007812 1.40019531 9.99609375 1.44335938 C11.54490234 1.50233398 11.54490234 1.50233398 13.125 1.5625 C14.68541016 1.62727539 14.68541016 1.62727539 16.27734375 1.69335938 C18.85142528 1.7996288 21.42560508 1.90166583 24 2 C24.33 1.34 24.66 0.68 25 0 C25 0.99 25 1.98 25 3 C16.09 3 7.18 3 -2 3 C-2 2.34 -2 1.68 -2 1 C-1.34 0.67 -0.68 0.34 0 0 Z " fill="#DCECEF" transform="translate(582,580)"/>
<path d="M0 0 C-0.33 0.99 -0.66 1.98 -1 3 C-6.28 3 -11.56 3 -17 3 C-17.33 2.34 -17.66 1.68 -18 1 C-15.56257869 0.83210874 -13.12507454 0.66563867 -10.6875 0.5 C-9.99720703 0.45230469 -9.30691406 0.40460937 -8.59570312 0.35546875 C-5.72337641 0.16120511 -2.87986212 0 0 0 Z " fill="#0261BD" transform="translate(910,618)"/>
<path d="M0 0 C1.89575251 -0.02721176 3.79161979 -0.04649136 5.6875 -0.0625 C6.74324219 -0.07410156 7.79898438 -0.08570313 8.88671875 -0.09765625 C11.72410262 -0.00865425 14.2438919 0.35060162 17 1 C16.67 1.66 16.34 2.32 16 3 C13.89521396 2.88590318 11.79115423 2.75834639 9.6875 2.625 C8.51574219 2.55539062 7.34398437 2.48578125 6.13671875 2.4140625 C3 2 3 2 0 0 Z " fill="#035BB5" transform="translate(170,596)"/>
<path d="M0 0 C0 0.66 0 1.32 0 2 C1.423125 1.938125 1.423125 1.938125 2.875 1.875 C6 2 6 2 8 4 C4.26218844 5.24593719 2.66988079 4.20084054 -0.859375 2.76953125 C-3.89783638 1.67723765 -6.79574402 1.33377666 -10 1 C-6.42181037 -1.33958553 -4.07775191 -0.9267618 0 0 Z " fill="#1C78C5" transform="translate(501,399)"/>
<path d="M0 0 C0 3 0 3 -1 5 C-1.66 5 -2.32 5 -3 5 C-3.226875 5.5775 -3.45375 6.155 -3.6875 6.75 C-5.33038023 9.5663661 -7.39533227 11.08077114 -10 13 C-10 10 -10 10 -7.8125 7.51953125 C-6.884375 6.62621094 -5.95625 5.73289062 -5 4.8125 C-4.071875 3.91144531 -3.14375 3.01039063 -2.1875 2.08203125 C-1.1046875 1.05142578 -1.1046875 1.05142578 0 0 Z " fill="#035EB8" transform="translate(357,509)"/>
<path d="M0 0 C0.66 0 1.32 0 2 0 C2 0.66 2 1.32 2 2 C0.390625 3.5859375 0.390625 3.5859375 -1.75 5.375 C-4.6243732 7.81617866 -7.38543992 10.27649992 -10 13 C-10 11.68 -10 10.36 -10 9 C-9.34 9 -8.68 9 -8 9 C-7.95875 8.4225 -7.9175 7.845 -7.875 7.25 C-6.55942613 3.86709577 -4.02876518 2.82987896 -1 1 C-0.67 0.67 -0.34 0.34 0 0 Z " fill="#0E67B9" transform="translate(153,483)"/>
<path d="M0 0 C0 0.33 0 0.66 0 1 C-1.7015625 1.2165625 -1.7015625 1.2165625 -3.4375 1.4375 C-6.80777201 1.61171478 -6.80777201 1.61171478 -8 3 C-9.46948963 3.28469564 -10.95191805 3.5044763 -12.4375 3.6875 C-13.64212891 3.84798828 -13.64212891 3.84798828 -14.87109375 4.01171875 C-17 4 -17 4 -19 2 C-13.4734994 -0.7632503 -6.04219753 -0.10985814 0 0 Z " fill="#1F7EC4" transform="translate(353,389)"/>
<path d="M0 0 C-5.5522888 2.8352113 -9.80112515 3.37952295 -16 3 C-13.2403139 1.16020927 -11.70258118 0.51676779 -8.5625 -0.1875 C-7.41974609 -0.45626953 -7.41974609 -0.45626953 -6.25390625 -0.73046875 C-3.87041504 -1.0154963 -2.26895796 -0.72875415 0 0 Z " fill="#0361BD" transform="translate(770,617)"/>
<path d="M0 0 C-1.98 0.99 -1.98 0.99 -4 2 C-4 2.33 -4 2.66 -4 3 C-5.43534841 3.2226746 -6.87345525 3.42761906 -8.3125 3.625 C-9.11300781 3.74101562 -9.91351563 3.85703125 -10.73828125 3.9765625 C-13 4 -13 4 -16 2 C-14.08654673 1.46748234 -12.1690705 0.94940517 -10.25 0.4375 C-9.18265625 0.14746094 -8.1153125 -0.14257812 -7.015625 -0.44140625 C-4.15664073 -0.97098494 -2.68402617 -0.98370862 0 0 Z " fill="#1B75BF" transform="translate(201,456)"/>
<path d="M0 0 C2 2 2 2 2.375 4.875 C1.92491816 8.62568199 0.87398748 9.66488517 -2 12 C-2 9.20215289 -1.62804225 7.0209322 -1 4.3125 C-0.814375 3.50425781 -0.62875 2.69601562 -0.4375 1.86328125 C-0.2209375 0.94095703 -0.2209375 0.94095703 0 0 Z " fill="#1B73C2" transform="translate(615,605)"/>
<path d="M0 0 C3.3 0 6.6 0 10 0 C10.33 1.65 10.66 3.3 11 5 C10.34 4.34 9.68 3.68 9 3 C7.08819451 2.71994942 7.08819451 2.71994942 5 2.8125 C3.948125 2.82216797 3.948125 2.82216797 2.875 2.83203125 C0.90943627 2.89293867 0.90943627 2.89293867 -1 4 C-0.67 2.68 -0.34 1.36 0 0 Z " fill="#0462BE" transform="translate(845,560)"/>
<path d="M0 0 C1.65 0 3.3 0 5 0 C2.54908957 2.68433048 0.71758616 3.91789741 -3.04296875 4.09765625 C-3.75066406 4.08605469 -4.45835937 4.07445312 -5.1875 4.0625 C-7.0746875 4.0315625 -7.0746875 4.0315625 -9 4 C-9 3.34 -9 2.68 -9 2 C-6.03 2 -3.06 2 0 2 C0 1.34 0 0.68 0 0 Z " fill="#0866BF" transform="translate(811,617)"/>
<path d="M0 0 C1.75570312 0.01353516 1.75570312 0.01353516 3.546875 0.02734375 C4.43890625 0.03894531 5.3309375 0.05054688 6.25 0.0625 C3.39359812 1.64650468 0.99202961 2.4350034 -2.25 2.8125 C-3.0028125 2.91046875 -3.755625 3.0084375 -4.53125 3.109375 C-7.09582212 3.0551939 -8.56234507 2.35520519 -10.75 1.0625 C-7.14006828 -0.07230527 -3.7657673 -0.03765767 0 0 Z " fill="#2A89C7" transform="translate(649.75,557.9375)"/>
<path d="M0 0 C-0.99 0 -1.98 0 -3 0 C-3 0.66 -3 1.32 -3 2 C-4.62171239 2.38897161 -6.24754925 2.76078298 -7.875 3.125 C-8.77992188 3.33382813 -9.68484375 3.54265625 -10.6171875 3.7578125 C-11.40351563 3.83773438 -12.18984375 3.91765625 -13 4 C-13.66 3.34 -14.32 2.68 -15 2 C-13.25364835 1.46706165 -11.50272348 0.94909337 -9.75 0.4375 C-8.77546875 0.14746094 -7.8009375 -0.14257812 -6.796875 -0.44140625 C-4.03756068 -0.99249836 -2.6087176 -0.93789609 0 0 Z " fill="#1F77C0" transform="translate(299,506)"/>
<path d="M0 0 C0.99 0 1.98 0 3 0 C2.58846263 4.97093824 2.20399168 9.44508386 0 14 C-0.66 13.01 -1.32 12.02 -2 11 C-1.36474424 9.32110979 -0.69313908 7.65583225 0 6 C0.16757757 2.79129767 0.16757757 2.79129767 0 0 Z " fill="#1E73BF" transform="translate(367,501)"/>
<path d="M0 0 C0.33 0.99 0.66 1.98 1 3 C-0.23734984 4.03613033 -1.49044637 5.05347802 -2.75 6.0625 C-3.79414063 6.91521484 -3.79414063 6.91521484 -4.859375 7.78515625 C-7 9 -7 9 -11 8 C-7.37 5.36 -3.74 2.72 0 0 Z " fill="#1169BC" transform="translate(255,440)"/>
<path d="M0 0 C0.33 0 0.66 0 1 0 C1.04898438 0.88042969 1.09796875 1.76085937 1.1484375 2.66796875 C1.22320313 3.82941406 1.29796875 4.99085938 1.375 6.1875 C1.44460938 7.33605469 1.51421875 8.48460937 1.5859375 9.66796875 C1.97509574 12.79959117 2.6809851 15.15285809 4 18 C2.68 17.67 1.36 17.34 0 17 C-0.98844951 13.05352382 -0.96191905 9.72607036 -0.5625 5.6875 C-0.46066406 4.61886719 -0.35882812 3.55023437 -0.25390625 2.44921875 C-0.17011719 1.64097656 -0.08632813 0.83273437 0 0 Z " fill="#388FCC" transform="translate(514,585)"/>
<path d="M0 0 C-2.73533435 1.82355623 -4.32643913 2.51551683 -7.4375 3.25 C-8.58025391 3.53617188 -8.58025391 3.53617188 -9.74609375 3.828125 C-12.43405459 4.03309948 -13.72977301 3.38592445 -16 2 C-10.42932723 0.40837921 -5.78898419 -0.20674944 0 0 Z " fill="#217AC5" transform="translate(819,581)"/>
<path d="M0 0 C2.08268593 -0.08126087 4.16628658 -0.13930839 6.25 -0.1875 C7.99023438 -0.23970703 7.99023438 -0.23970703 9.765625 -0.29296875 C13.22268407 0.02017066 14.51565563 0.65709108 17 3 C16.67 3.99 16.34 4.98 16 6 C15.64292969 5.52949219 15.28585937 5.05898438 14.91796875 4.57421875 C12.1989769 2.34254112 9.77044326 2.25758181 6.3125 1.8125 C5.13300781 1.65394531 3.95351563 1.49539063 2.73828125 1.33203125 C1.83464844 1.22246094 0.93101562 1.11289062 0 1 C0 0.67 0 0.34 0 0 Z " fill="#2380C6" transform="translate(804,570)"/>
<path d="M0 0 C1.32 0.99 2.64 1.98 4 3 C-1.61 2.67 -7.22 2.34 -13 2 C-13 1.67 -13 1.34 -13 1 C-8.60182657 0.14181982 -4.47999001 -0.33185111 0 0 Z " fill="#2980C3" transform="translate(187,579)"/>
<path d="M0 0 C0.66 0 1.32 0 2 0 C1.91253716 1.43861294 1.80434652 2.87597508 1.6875 4.3125 C1.62949219 5.11300781 1.57148437 5.91351562 1.51171875 6.73828125 C0.91793306 9.36272334 0.04219706 10.30820672 -2 12 C-1 3.42857143 -1 3.42857143 0 0 Z " fill="#166DBE" transform="translate(120,516)"/>
<path d="M0 0 C4.3429862 0.65802821 8.07277596 2.03638798 12 4 C12.33 4.99 12.66 5.98 13 7 C8.1725201 5.58707905 4.2837641 3.57025846 0 1 C0 0.67 0 0.34 0 0 Z " fill="#176DBC" transform="translate(136,509)"/>
<path d="M0 0 C0 0.66 0 1.32 0 2 C-2.1171875 3.5078125 -2.1171875 3.5078125 -4.875 5.125 C-5.77992188 5.66382813 -6.68484375 6.20265625 -7.6171875 6.7578125 C-10 8 -10 8 -12 8 C-12 7.34 -12 6.68 -12 6 C-9.8828125 4.4921875 -9.8828125 4.4921875 -7.125 2.875 C-6.22007812 2.33617187 -5.31515625 1.79734375 -4.3828125 1.2421875 C-2 0 -2 0 0 0 Z " fill="#136BBE" transform="translate(419,623)"/>
<path d="M0 0 C6.875 0.875 6.875 0.875 8 2 C10.32817964 2.36760731 12.6618385 2.70241581 15 3 C15 3.33 15 3.66 15 4 C9.5610835 4.21755666 5.12919186 4.10428384 0 2 C0 1.34 0 0.68 0 0 Z " fill="#2C86C8" transform="translate(517,618)"/>
<path d="M0 0 C2.93200474 2.85276137 5.64315404 5.65079784 8 9 C7.01 9 6.02 9 5 9 C3.26776336 7.05651499 1.60118397 5.05279996 0 3 C-0.66 2.34 -1.32 1.68 -2 1 C-1.34 0.67 -0.68 0.34 0 0 Z " fill="#136ABC" transform="translate(148,601)"/>
<path d="M0 0 C3.63 0 7.26 0 11 0 C11.33 0.99 11.66 1.98 12 3 C4.5 3.375 4.5 3.375 0 0 Z " fill="#166EBC" transform="translate(160,577)"/>
<path d="M0 0 C1.97909398 -0.02686553 3.95828971 -0.04633375 5.9375 -0.0625 C7.03964844 -0.07410156 8.14179688 -0.08570313 9.27734375 -0.09765625 C12 0 12 0 13 1 C13.14115161 3.67058851 13.04247107 6.32432238 13 9 C12.67 9 12.34 9 12 9 C11.67 7.02 11.34 5.04 11 3 C7.37 2.34 3.74 1.68 0 1 C0 0.67 0 0.34 0 0 Z " fill="#0C6FC0" transform="translate(480,559)"/>
<path d="M0 0 C1.125 3.75 1.125 3.75 0 6 C1.65 6 3.3 6 5 6 C5 6.66 5 7.32 5 8 C2.625 8.625 2.625 8.625 0 9 C-0.66 8.34 -1.32 7.68 -2 7 C-1.6730244 4.38419521 -1.17960932 2.35921863 0 0 Z " fill="#1C72BF" transform="translate(453,458)"/>
<path d="M0 0 C0 0.33 0 0.66 0 1 C-5.83799592 2.69832609 -10.93107371 3.25287193 -17 3 C-17 2.67 -17 2.34 -17 2 C-11.16200408 0.30167391 -6.06892629 -0.25287193 0 0 Z " fill="#015AB6" transform="translate(222,453)"/>
<path d="M0 0 C-4.95 2.97 -4.95 2.97 -10 6 C-10.66 5.34 -11.32 4.68 -12 4 C-10.76055724 3.13058506 -9.50792941 2.27994543 -8.25 1.4375 C-7.55390625 0.96183594 -6.8578125 0.48617188 -6.140625 -0.00390625 C-4 -1 -4 -1 0 0 Z " fill="#1068BC" transform="translate(314,415)"/>
<path d="M0 0 C0.66 0 1.32 0 2 0 C2.61875 0.94875 3.2375 1.8975 3.875 2.875 C5.87924473 5.82241872 6.74790731 6.83853833 10 8 C10 8.66 10 9.32 10 10 C4.98343041 8.5666944 2.98547118 6.09436048 0 2 C0 1.34 0 0.68 0 0 Z " fill="#0662BC" transform="translate(627,609)"/>
<path d="M0 0 C0.99 0.33 1.98 0.66 3 1 C-1.82442893 4.79062273 -4.74803275 6.28418033 -11 6 C-10.484375 5.7525 -9.96875 5.505 -9.4375 5.25 C-7.08937386 4.08590712 -7.08937386 4.08590712 -5.28125 2.94140625 C-3.56275368 1.88919134 -1.78244203 0.93983307 0 0 Z " fill="#116CC0" transform="translate(772,602)"/>
<path d="M0 0 C5.94 2.475 5.94 2.475 12 5 C12 5.33 12 5.66 12 6 C6.28758534 5.61271765 3.26311718 5.12989477 -1 1 C-0.67 0.67 -0.34 0.34 0 0 Z " fill="#0E64BA" transform="translate(131,594)"/>
<path d="M0 0 C0.66 0 1.32 0 2 0 C2 2.31 2 4.62 2 7 C3.32 7.33 4.64 7.66 6 8 C4.34385343 8.38218767 2.67542976 8.71395102 1 9 C0 8 0 8 -0.09765625 6.15234375 C-0.06510417 4.1015625 -0.03255208 2.05078125 0 0 Z " fill="#015DBA" transform="translate(631,565)"/>
<path d="M0 0 C0.66 0.99 1.32 1.98 2 3 C0.35 5.97 -1.3 8.94 -3 12 C-3.66 12 -4.32 12 -5 12 C-3.68938409 7.76570244 -2.05643741 3.92592596 0 0 Z " fill="#136BBC" transform="translate(127,501)"/>
<path d="M0 0 C0.99 0.33 1.98 0.66 3 1 C2.34 1 1.68 1 1 1 C1 1.66 1 2.32 1 3 C-0.175625 3.37125 -0.175625 3.37125 -1.375 3.75 C-4.32317108 5.15389099 -4.9024777 6.00675737 -6 9 C-6.33 8.01 -6.66 7.02 -7 6 C-5.90716423 4.96704564 -4.80029421 3.94892165 -3.6875 2.9375 C-3.07261719 2.36902344 -2.45773437 1.80054688 -1.82421875 1.21484375 C-0.92123047 0.61349609 -0.92123047 0.61349609 0 0 Z " fill="#045CBA" transform="translate(461,451)"/>
<path d="M0 0 C4.37859255 0.50522222 6.81651224 3.17827222 10 6 C9.67 6.99 9.34 7.98 9 9 C7.49704815 7.69088122 5.99770689 6.37761608 4.5 5.0625 C3.6646875 4.33160156 2.829375 3.60070312 1.96875 2.84765625 C1.3190625 2.23792969 0.669375 1.62820313 0 1 C0 0.67 0 0.34 0 0 Z " fill="#136BBF" transform="translate(544,427)"/>
<path d="M0 0 C4.59306496 1.4859916 7.43569245 3.85014682 11 7 C10.01 7.495 10.01 7.495 9 8 C7.49460339 7.05016642 5.99579653 6.08988109 4.5 5.125 C3.6646875 4.59132813 2.829375 4.05765625 1.96875 3.5078125 C1.3190625 3.01023437 0.669375 2.51265625 0 2 C0 1.34 0 0.68 0 0 Z " fill="#0A66BB" transform="translate(538,409)"/>
<path d="M0 0 C4.70689655 2.4137931 4.70689655 2.4137931 6 5 C6 7 6 7 4.5625 8.75 C3.7890625 9.36875 3.7890625 9.36875 3 10 C3 9.01 3 8.02 3 7 C2.36729133 5.65022151 1.69937532 4.31647119 1 3 C0.67 2.01 0.34 1.02 0 0 Z " fill="#0F6ABC" transform="translate(500,446)"/>
<path d="M0 0 C-0.66 0.66 -1.32 1.32 -2 2 C-4.6015625 1.9765625 -4.6015625 1.9765625 -7.625 1.625 C-8.62789062 1.51414062 -9.63078125 1.40328125 -10.6640625 1.2890625 C-11.82035156 1.14597656 -11.82035156 1.14597656 -13 1 C-13 0.67 -13 0.34 -13 0 C-8.38926889 -1.29676812 -4.66159911 -0.71109139 0 0 Z " fill="#146CBC" transform="translate(147,574)"/>
<path d="M0 0 C0.99 0.33 1.98 0.66 3 1 C3 4.3 3 7.6 3 11 C2.34 10.67 1.68 10.34 1 10 C0.5859375 7.71484375 0.5859375 7.71484375 0.375 4.9375 C0.30023437 4.01839844 0.22546875 3.09929688 0.1484375 2.15234375 C0.09945312 1.44207031 0.05046875 0.73179687 0 0 Z " fill="#0361BB" transform="translate(774,542)"/>
<path d="M0 0 C7.75 -0.125 7.75 -0.125 10 1 C9.67 1.99 9.34 2.98 9 4 C6.36 3.67 3.72 3.34 1 3 C0.67 2.01 0.34 1.02 0 0 Z " fill="#1D78C5" transform="translate(482,536)"/>
<path d="M0 0 C0.66 0.33 1.32 0.66 2 1 C0.90931332 4.77545388 0.0916909 7.47043472 -3 10 C-3.66 9.67 -4.32 9.34 -5 9 C-4.319375 8.1646875 -4.319375 8.1646875 -3.625 7.3125 C-1.96266232 4.94686561 -0.97855457 2.70984342 0 0 Z " fill="#035FBB" transform="translate(922,606)"/>
<path d="M0 0 C3.55780196 0.60990891 6.6828589 1.5783681 10 3 C10 3.66 10 4.32 10 5 C6.7 4.01 3.4 3.02 0 2 C0 1.34 0 0.68 0 0 Z " fill="#1B73C1" transform="translate(891,591)"/>
<path d="M0 0 C-4.95 2.475 -4.95 2.475 -10 5 C-8 1 -8 1 -6.125 -0.3125 C-4 -1 -4 -1 0 0 Z " fill="#0A65BD" transform="translate(869,561)"/>
<path d="M0 0 C1.134375 0.020625 2.26875 0.04125 3.4375 0.0625 C3.4375 0.3925 3.4375 0.7225 3.4375 1.0625 C1.7875 1.3925 0.1375 1.7225 -1.5625 2.0625 C-2.2225 5.0325 -2.8825 8.0025 -3.5625 11.0625 C-3.8925 11.0625 -4.2225 11.0625 -4.5625 11.0625 C-4.58938151 9.41675434 -4.60884123 7.77088587 -4.625 6.125 C-4.63660156 5.20847656 -4.64820313 4.29195312 -4.66015625 3.34765625 C-4.49885955 -0.42668664 -3.92591522 0.06887571 0 0 Z " fill="#0159BB" transform="translate(484.5625,536.9375)"/>
<path d="M0 0 C0.66 0.33 1.32 0.66 2 1 C-0.1875 3.5625 -0.1875 3.5625 -3 6 C-5.8125 5.8125 -5.8125 5.8125 -8 5 C-2.6 1.4 -2.6 1.4 0 0 Z " fill="#1A76C2" transform="translate(610,604)"/>
<path d="M0 0 C0.66 0 1.32 0 2 0 C5.22265625 5.17578125 5.22265625 5.17578125 6 7 C5.67 7.99 5.34 8.98 5 10 C4.16121545 8.71186658 3.32913217 7.41936744 2.5 6.125 C2.0359375 5.40570312 1.571875 4.68640625 1.09375 3.9453125 C0 2 0 2 0 0 Z " fill="#126EC1" transform="translate(710,596)"/>
<path d="M0 0 C1.875 0.5625 1.875 0.5625 4 2 C5.25 5.625 5.25 5.625 6 9 C5.34 9 4.68 9 4 9 C0 2.25 0 2.25 0 0 Z " fill="#0465BF" transform="translate(603,573)"/>
<path d="M0 0 C3.81684226 1.55500981 6.19195732 4.03595495 9 7 C4.71193127 6.52354792 2.73352513 5.34097516 0 2 C0 1.34 0 0.68 0 0 Z " fill="#075CB6" transform="translate(267,530)"/>
<path d="M0 0 C0 0.33 0 0.66 0 1 C-4.8333472 1.08333357 -9.23692563 0.95261487 -14 0 C-14 -0.33 -14 -0.66 -14 -1 C-9.04653013 -2.59789351 -4.86717585 -1.28306814 0 0 Z " fill="#2C83C2" transform="translate(185,521)"/>
<path d="M0 0 C0 0.66 0 1.32 0 2 C-3.3 2.66 -6.6 3.32 -10 4 C-10 3.34 -10 2.68 -10 2 C-6.49223216 0.39644899 -3.85645121 -0.22036864 0 0 Z " fill="#0762B8" transform="translate(308,512)"/>
<path d="M0 0 C3.31562557 0.55260426 6.15062207 1.16825705 9 3 C9.33 3.99 9.66 4.98 10 6 C5.56909529 4.79157144 3.01887244 3.48331435 0 0 Z " fill="#116DBF" transform="translate(510,404)"/>
<path d="M0 0 C0.66 0.33 1.32 0.66 2 1 C-0.07143201 5.03384128 -1.96615872 6.92856799 -6 9 C-4.47291037 5.56404834 -2.40072955 2.88087546 0 0 Z " fill="#0660BC" transform="translate(819,601)"/>
<path d="M0 0 C1.62418745 -0.08090971 3.24951745 -0.13914995 4.875 -0.1875 C5.77992188 -0.22230469 6.68484375 -0.25710938 7.6171875 -0.29296875 C8.79667969 -0.14794922 8.79667969 -0.14794922 10 0 C10.66 0.99 11.32 1.98 12 3 C3.96428571 2.19642857 3.96428571 2.19642857 0 0 Z " fill="#005FBD" transform="translate(527,570)"/>
<path d="M0 0 C3.25543229 0.34879632 4.01873107 1.02133261 6.25 3.5625 C6.8275 4.366875 7.405 5.17125 8 6 C7.34 6.66 6.68 7.32 6 8 C5.87625 7.071875 5.87625 7.071875 5.75 6.125 C5.20005805 3.8234856 5.20005805 3.8234856 3 2.875 C2.34 2.58625 1.68 2.2975 1 2 C0.67 1.34 0.34 0.68 0 0 Z " fill="#0361BD" transform="translate(666,563)"/>
<path d="M0 0 C0 2 0 2 -2.3125 4.5 C-5 7 -5 7 -8 9 C-7.53918323 4.85264908 -4.48412936 0 0 0 Z " fill="#025AB7" transform="translate(386,524)"/>
<path d="M0 0 C-2.60691842 2.60691842 -4.37607794 2.70416963 -8 3 C-8.99 2.34 -9.98 1.68 -11 1 C-7.32589215 -0.17571451 -3.83070817 -0.07366746 0 0 Z " fill="#1B77C1" transform="translate(367,598)"/>
<path d="M0 0 C3.3 0.33 6.6 0.66 10 1 C10 1.33 10 1.66 10 2 C6.37 2.33 2.74 2.66 -1 3 C-0.67 2.01 -0.34 1.02 0 0 Z " fill="#287CC1" transform="translate(192,597)"/>
<path d="M0 0 C2.0625 2.3125 2.0625 2.3125 4 5 C3.67 5.99 3.34 6.98 3 8 C2.34 8 1.68 8 1 8 C0.67 5.36 0.34 2.72 0 0 Z " fill="#126EC1" transform="translate(616,569)"/>
<path d="M0 0 C0.99 0.33 1.98 0.66 3 1 C-0.465 3.97 -0.465 3.97 -4 7 C-3.04065919 3.16263678 -2.76390737 2.40339772 0 0 Z " fill="#136EBE" transform="translate(360,520)"/>
<path d="M0 0 C0 0.33 0 0.66 0 1 C-9.41002278 3.48063781 -9.41002278 3.48063781 -14 2 C-14 1.67 -14 1.34 -14 1 C-9.23692563 0.04738513 -4.8333472 -0.08333357 0 0 Z " fill="#3D93C9" transform="translate(231,451)"/>
<path d="M0 0 C0.33 0 0.66 0 1 0 C1.2475 0.928125 1.495 1.85625 1.75 2.8125 C3.06454245 6.16458325 3.97963384 7.1877803 7 9 C1.125 8.125 1.125 8.125 0 7 C-0.04092937 4.66702567 -0.04241723 2.33294775 0 0 Z " fill="#055BBB" transform="translate(880,608)"/>
<path d="M0 0 C1.17539996 0.92652701 2.34010577 1.86663387 3.5 2.8125 C4.1496875 3.33457031 4.799375 3.85664062 5.46875 4.39453125 C7 6 7 6 7 9 C5.82460004 8.07347299 4.65989423 7.13336613 3.5 6.1875 C2.52546875 5.40439453 2.52546875 5.40439453 1.53125 4.60546875 C0 3 0 3 0 0 Z " fill="#055FBC" transform="translate(716,604)"/>
<path d="M0 0 C1.88391785 3.26545761 2.49287967 6.28111761 3 10 C0 8 0 8 -0.75 5.5625 C-1 3 -1 3 0 0 Z " fill="#1B75C2" transform="translate(378,592)"/>
<path d="M0 0 C2.99324263 1.0975223 3.84610901 1.67682892 5.25 4.625 C5.4975 5.40875 5.745 6.1925 6 7 C2.58841744 5.86280581 1.88145399 4.95657056 0 2 C0 1.34 0 0.68 0 0 Z " fill="#176FBF" transform="translate(918,590)"/>
<path d="M0 0 C0.66 0.33 1.32 0.66 2 1 C0.515 3.475 0.515 3.475 -1 6 C-1.99 5.34 -2.98 4.68 -4 4 C-2.68 2.68 -1.36 1.36 0 0 Z " fill="#1172C3" transform="translate(510,565)"/>
<path d="M0 0 C0.33 0 0.66 0 1 0 C1.36923077 5.53846154 1.36923077 5.53846154 -0.5 7.875 C-1.2425 8.431875 -1.2425 8.431875 -2 9 C-1.125 1.125 -1.125 1.125 0 0 Z " fill="#1772BF" transform="translate(370,553)"/>
<path d="M0 0 C3.82946843 1.45255699 5.12050295 3.42895561 7 7 C6.01 7 5.02 7 4 7 C2.02 3.535 2.02 3.535 0 0 Z " fill="#0863BC" transform="translate(428,523)"/>
<path d="M0 0 C0.66 0 1.32 0 2 0 C0.9024777 2.99324263 0.32317108 3.84610901 -2.625 5.25 C-3.40875 5.4975 -4.1925 5.745 -5 6 C-5 5.34 -5 4.68 -5 4 C-4.34 4 -3.68 4 -3 4 C-3 3.34 -3 2.68 -3 2 C-2.01 2 -1.02 2 0 2 C0 1.34 0 0.68 0 0 Z " fill="#055DB8" transform="translate(275,437)"/>
<path d="M0 0 C-1 3 -1 3 -4.0625 4.6875 C-5.031875 5.120625 -6.00125 5.55375 -7 6 C-7 5.01 -7 4.02 -7 3 C-2.77777778 0 -2.77777778 0 0 0 Z " fill="#1367BB" transform="translate(291,428)"/>
<path d="M0 0 C0.99 0.33 1.98 0.66 3 1 C2.01 2.485 2.01 2.485 1 4 C0.34 4 -0.32 4 -1 4 C-1 4.66 -1 5.32 -1 6 C-1.99 5.67 -2.98 5.34 -4 5 C-2.68 3.35 -1.36 1.7 0 0 Z " fill="#146FC1" transform="translate(452,409)"/>
</svg>
